<svg width="156" height="36" viewBox="0 0 156 36" fill="none" xmlns="http://www.w3.org/2000/svg">
<g opacity="0.55">
<path opacity="0.55" d="M33.362 11.637C33.815 11.637 33.962 11.801 33.962 12.237V22.2H39.082C39.522 22.2 39.682 22.364 39.682 22.8V23.687C39.682 24.127 39.518 24.287 39.082 24.287H32.343C31.903 24.287 31.727 24.123 31.727 23.687V12.241C31.727 11.801 31.903 11.641 32.343 11.641L33.362 11.637Z" fill="#394149"/>
<path opacity="0.55" d="M44.156 16.027C44.156 13.121 45.993 11.372 49.188 11.372C52.383 11.372 54.22 13.121 54.22 16.027V19.902C54.22 22.808 52.371 24.557 49.188 24.557C46.005 24.557 44.156 22.807 44.156 19.901V16.027ZM52.107 16.027C52.107 14.392 51.088 13.511 49.251 13.511C47.414 13.511 46.408 14.404 46.408 16.027V19.927C46.408 21.575 47.414 22.443 49.251 22.443C51.088 22.443 52.107 21.537 52.107 19.927V16.027Z" fill="#394149"/>
<path opacity="0.55" d="M69.204 17.36C69.695 17.36 69.804 17.524 69.804 17.96V20.35C69.8182 20.9132 69.7061 21.4725 69.476 21.9868C69.2458 22.5011 68.9034 22.9573 68.474 23.322C67.4069 24.1719 66.0613 24.5937 64.7 24.505C61.442 24.505 59.668 22.756 59.668 19.85V15.95C59.668 13.082 61.505 11.321 64.7 11.321C67.216 11.321 68.851 12.315 69.543 14.302C69.5817 14.3766 69.6024 14.4593 69.6036 14.5434C69.6048 14.6275 69.5863 14.7107 69.5497 14.7864C69.5132 14.8621 69.4594 14.9282 69.3928 14.9795C69.3262 15.0308 69.2485 15.0659 69.166 15.082L68.185 15.422C67.757 15.573 67.585 15.485 67.43 15.045C67.2214 14.5078 66.8398 14.0553 66.3454 13.7592C65.851 13.4631 65.272 13.3402 64.7 13.41C62.851 13.41 61.844 14.303 61.844 15.926V19.926C61.844 21.574 62.863 22.442 64.7 22.442C66.537 22.442 67.669 21.599 67.669 20.366V19.435H64.938C64.485 19.435 64.322 19.259 64.322 18.819V17.964C64.322 17.524 64.486 17.364 64.938 17.364L69.204 17.36Z" fill="#394149"/>
<path opacity="0.55" d="M75.003 16.027C75.003 13.121 76.84 11.372 80.035 11.372C83.23 11.372 85.067 13.121 85.067 16.027V19.902C85.067 22.808 83.218 24.557 80.035 24.557C76.852 24.557 75.003 22.808 75.003 19.902V16.027ZM82.941 16.027C82.941 14.392 81.922 13.511 80.098 13.511C78.274 13.511 77.242 14.404 77.242 16.027V19.927C77.242 21.575 78.261 22.443 80.098 22.443C81.935 22.443 82.941 21.537 82.941 19.927V16.027Z" fill="#394149"/>
<path opacity="0.55" d="M90.992 12.002C90.992 11.725 91.08 11.637 91.357 11.637H91.936C92.213 11.637 92.276 11.725 92.276 12.002V23.928C92.276 24.205 92.276 24.293 91.936 24.293H91.357C91.08 24.293 90.992 24.205 90.992 23.928V12.002Z" fill="#394149"/>
<path opacity="0.55" d="M103.739 11.637C104.787 11.637 105.791 12.0532 106.532 12.794C107.273 13.5347 107.689 14.5394 107.689 15.587C107.689 16.6346 107.273 17.6393 106.532 18.3801C105.791 19.1209 104.787 19.537 103.739 19.537H99.962V23.927C99.962 24.204 99.899 24.292 99.635 24.292H99.039C98.775 24.292 98.674 24.204 98.674 23.927V12.002C98.674 11.725 98.774 11.637 99.039 11.637H103.739ZM103.623 18.287C104.35 18.287 105.048 17.9981 105.562 17.4838C106.077 16.9694 106.366 16.2719 106.366 15.5445C106.366 14.8172 106.077 14.1196 105.562 13.6053C105.048 13.091 104.35 12.802 103.623 12.802H99.849V18.287H103.623Z" fill="#394149"/>
<path opacity="0.55" d="M117.511 11.385C118.482 11.2777 119.462 11.4865 120.305 11.9805C121.148 12.4745 121.81 13.2273 122.191 14.127C122.291 14.327 122.191 14.492 121.991 14.592L121.437 14.844C121.211 14.932 121.122 14.919 120.984 14.68C120.699 14.0121 120.209 13.4523 119.584 13.0814C118.96 12.7105 118.234 12.5479 117.511 12.617C115.385 12.617 114.228 13.46 114.228 14.969C114.216 15.4307 114.371 15.8812 114.665 16.2372C114.959 16.5933 115.372 16.8308 115.828 16.906C116.505 17.1258 117.206 17.2602 117.916 17.306C118.776 17.3519 119.624 17.5258 120.432 17.822C121.052 18.0177 121.585 18.421 121.943 18.9639C122.3 19.5068 122.46 20.1563 122.395 20.803C122.395 23.155 120.684 24.577 117.539 24.577C116.508 24.6962 115.468 24.4587 114.59 23.9041C113.713 23.3496 113.052 22.5114 112.718 21.529C112.696 21.4842 112.684 21.435 112.683 21.385C112.682 21.335 112.692 21.2854 112.713 21.2397C112.733 21.1941 112.763 21.1535 112.801 21.1209C112.839 21.0883 112.884 21.0644 112.932 21.051L113.486 20.851C113.53 20.8333 113.576 20.8247 113.624 20.826C113.671 20.8273 113.717 20.8383 113.76 20.8585C113.802 20.8786 113.84 20.9073 113.871 20.9429C113.902 20.9785 113.925 21.02 113.939 21.065C114.221 21.7758 114.722 22.3784 115.369 22.7854C116.016 23.1925 116.776 23.3829 117.539 23.329C119.917 23.329 121.087 22.499 121.087 20.813C121.109 20.3699 120.973 19.9332 120.704 19.5808C120.434 19.2283 120.048 18.9828 119.615 18.888C118.964 18.694 118.293 18.5759 117.615 18.536L116.256 18.36C115.831 18.2697 115.411 18.1562 114.998 18.02C114.59 17.897 114.21 17.6963 113.878 17.429C113.545 17.1271 113.282 16.7557 113.108 16.3409C112.934 15.9262 112.854 15.4783 112.872 15.029C112.957 12.819 114.605 11.385 117.511 11.385Z" fill="#394149"/>
<path opacity="0.55" d="M129.173 19.987C129.236 20.8696 129.632 21.6954 130.279 22.2982C130.927 22.901 131.779 23.2362 132.664 23.2362C133.549 23.2362 134.401 22.901 135.049 22.2982C135.696 21.6954 136.092 20.8696 136.155 19.987V12.002C136.155 11.725 136.243 11.637 136.52 11.637H137.099C137.376 11.637 137.464 11.725 137.464 12.002V19.978C137.464 22.834 135.778 24.557 132.671 24.557C129.564 24.557 127.878 22.834 127.878 19.978V12.002C127.878 11.725 127.966 11.637 128.23 11.637H128.821C129.085 11.637 129.173 11.725 129.173 12.002V19.987Z" fill="#394149"/>
<path opacity="0.55" d="M154.824 11.636C155.101 11.636 155.189 11.724 155.189 12.001V23.927C155.189 24.204 155.101 24.292 154.824 24.292H154.296C154.032 24.292 153.944 24.204 153.944 23.927V16.669C153.944 15.6127 154.016 14.5577 154.158 13.511H154.083C153.69 14.4679 153.232 15.3968 152.712 16.291L150.012 21.059C149.979 21.1417 149.922 21.2124 149.847 21.2618C149.773 21.3113 149.686 21.3371 149.597 21.336H149.245C149.154 21.3367 149.066 21.3108 148.99 21.2616C148.913 21.2123 148.854 21.1419 148.817 21.059L146.075 16.241C145.588 15.3595 145.168 14.4429 144.817 13.499H144.742C144.87 14.5552 144.937 15.618 144.942 16.682V23.928C144.942 24.205 144.854 24.293 144.577 24.293H144.076C143.799 24.293 143.711 24.205 143.711 23.928V12.001C143.711 11.724 143.799 11.636 144.076 11.636H144.529C144.632 11.6265 144.735 11.6493 144.825 11.701C144.914 11.7528 144.986 11.831 145.029 11.925L149.429 19.75L153.807 12.001C153.945 11.737 154.021 11.701 154.298 11.701L154.824 11.636Z" fill="#394149"/>
<path opacity="0.55" d="M10.982 22.38V31.48C10.9726 31.8223 10.8299 32.1475 10.5844 32.3863C10.339 32.6251 10.01 32.7587 9.6675 32.7587C9.32502 32.7587 8.99605 32.6251 8.75056 32.3863C8.50508 32.1475 8.36244 31.8223 8.353 31.48V22.393C8.71898 22.6604 9.15787 22.8097 9.611 22.821C10.1048 22.8351 10.5886 22.6799 10.982 22.381V22.38ZM22.182 19.751C21.8484 19.751 21.5284 19.8835 21.2925 20.1195C21.0565 20.3554 20.924 20.6754 20.924 21.009V22.594C20.9334 22.9363 21.0761 23.2615 21.3216 23.5003C21.5671 23.7391 21.896 23.8727 22.2385 23.8727C22.581 23.8727 22.9099 23.7391 23.1554 23.5003C23.4009 23.2615 23.5436 22.9363 23.553 22.594V21.072C23.5628 20.8916 23.5336 20.7113 23.4675 20.5432C23.4014 20.3751 23.2998 20.2232 23.1697 20.0978C23.0396 19.9725 22.8841 19.8766 22.7137 19.8168C22.5432 19.757 22.3619 19.7345 22.182 19.751ZM5.5 25.827C5.04671 25.8141 4.60776 25.6653 4.24 25.4V34.52C4.24 34.6935 4.27417 34.8653 4.34056 35.0255C4.40694 35.1858 4.50425 35.3314 4.62691 35.4541C4.74958 35.5768 4.8952 35.6741 5.05548 35.7404C5.21575 35.8068 5.38752 35.841 5.561 35.841C5.73448 35.841 5.90625 35.8068 6.06652 35.7404C6.2268 35.6741 6.37242 35.5768 6.49509 35.4541C6.61775 35.3314 6.71506 35.1858 6.78144 35.0255C6.84783 34.8653 6.882 34.6935 6.882 34.52V25.462C6.47123 25.7278 5.98641 25.8556 5.498 25.827H5.5ZM18.08 17.021C17.9096 17.0125 17.7392 17.0387 17.5792 17.0981C17.4192 17.1574 17.273 17.2487 17.1494 17.3664C17.0259 17.4841 16.9275 17.6257 16.8604 17.7826C16.7933 17.9395 16.7588 18.1084 16.759 18.279V25.286C16.759 25.6364 16.8982 25.9724 17.1459 26.2201C17.3936 26.4678 17.7296 26.607 18.08 26.607C18.4304 26.607 18.7664 26.4678 19.0141 26.2201C19.2618 25.9724 19.401 25.6364 19.401 25.286V18.367C19.411 18.1854 19.3816 18.0038 19.3147 17.8347C19.2478 17.6656 19.1451 17.513 19.0135 17.3875C18.882 17.2619 18.7248 17.1664 18.5527 17.1074C18.3807 17.0485 18.1979 17.0275 18.017 17.046L18.08 17.021ZM13.9 19.713C13.4261 19.7098 12.9647 19.5604 12.579 19.285V28.431C12.579 28.7814 12.7182 29.1174 12.9659 29.3651C13.2136 29.6128 13.5496 29.752 13.9 29.752C14.2504 29.752 14.5864 29.6128 14.8341 29.3651C15.0818 29.1174 15.221 28.7814 15.221 28.431V19.3C14.8218 19.5972 14.3345 19.7521 13.837 19.74L13.9 19.713ZM2.642 26.72V1.17C2.63858 0.858507 2.51243 0.560936 2.29094 0.341884C2.06946 0.122832 1.77051 -1.88072e-05 1.459 2.15957e-09H1.183C0.871488 -1.88072e-05 0.572541 0.122832 0.351056 0.341884C0.12957 0.560936 0.0034232 0.858507 0 1.17V26.72C0.000530028 27.0333 0.125433 27.3336 0.34726 27.5549C0.569087 27.7761 0.869687 27.9003 1.183 27.9H1.46C1.77314 27.9 2.07348 27.7757 2.29509 27.5545C2.5167 27.3333 2.64147 27.0331 2.642 26.72ZM5.636 24.858H5.359C5.20361 24.8581 5.04972 24.8276 4.90613 24.7682C4.76254 24.7088 4.63208 24.6217 4.5222 24.5118C4.41232 24.4019 4.32519 24.2715 4.26578 24.1279C4.20638 23.9843 4.17587 23.8304 4.176 23.675V4.214C4.17942 3.90251 4.30557 3.60494 4.52706 3.38588C4.74854 3.16683 5.04749 3.04398 5.359 3.044H5.636C5.94751 3.04398 6.24646 3.16683 6.46794 3.38588C6.68943 3.60494 6.81558 3.90251 6.819 4.214V23.7C6.81913 23.8554 6.78862 24.0093 6.72922 24.1529C6.66981 24.2965 6.58268 24.4269 6.4728 24.5368C6.36292 24.6467 6.23246 24.7338 6.08887 24.7932C5.94528 24.8526 5.79139 24.8831 5.636 24.883V24.858ZM9.8 21.864H9.511C9.2007 21.864 8.9031 21.7407 8.68369 21.5213C8.46427 21.3019 8.341 21.0043 8.341 20.694V7.234C8.33928 7.07926 8.36827 6.92572 8.4263 6.78227C8.48433 6.63881 8.57024 6.50829 8.67905 6.39827C8.78787 6.28824 8.91743 6.2009 9.06024 6.14129C9.20304 6.08168 9.35625 6.05099 9.511 6.051H9.8C10.1115 6.05442 10.4091 6.18057 10.6281 6.40206C10.8472 6.62354 10.97 6.92249 10.97 7.234V20.694C10.97 21.0043 10.8467 21.3019 10.6273 21.5213C10.4079 21.7407 10.1103 21.864 9.8 21.864ZM13.964 18.782H13.7C13.3885 18.782 13.0895 18.6592 12.8681 18.4401C12.6466 18.2211 12.5204 17.9235 12.517 17.612V10.366C12.5066 10.2044 12.5295 10.0424 12.5843 9.89006C12.6391 9.73769 12.7246 9.59821 12.8355 9.48026C12.9464 9.3623 13.0804 9.2684 13.2291 9.20436C13.3778 9.14033 13.5381 9.10753 13.7 9.108H13.977C14.1324 9.10787 14.2863 9.13838 14.4299 9.19778C14.5735 9.25719 14.7039 9.34432 14.8138 9.4542C14.9237 9.56408 15.0108 9.69454 15.0702 9.83813C15.1296 9.98172 15.1601 10.1356 15.16 10.291V17.591C15.1623 17.7478 15.1333 17.9034 15.0749 18.0489C15.0164 18.1944 14.9297 18.3269 14.8196 18.4385C14.7095 18.5502 14.5783 18.6388 14.4337 18.6994C14.289 18.7599 14.1338 18.791 13.977 18.791L13.964 18.782ZM18.141 16.082H17.864C17.7086 16.0821 17.5547 16.0516 17.4111 15.9922C17.2675 15.9328 17.1371 15.8457 17.0272 15.7358C16.9173 15.6259 16.8302 15.4955 16.7708 15.3519C16.7114 15.2083 16.6809 15.0544 16.681 14.899V13.02C16.6844 12.7085 16.8106 12.4109 17.0321 12.1919C17.2535 11.9728 17.5525 11.85 17.864 11.85H18.141C18.4525 11.85 18.7515 11.9728 18.9729 12.1919C19.1944 12.4109 19.3206 12.7085 19.324 13.02V14.894C19.324 15.2055 19.2012 15.5045 18.9821 15.7259C18.7631 15.9474 18.4655 16.0736 18.154 16.077L18.141 16.082Z" fill="#394149"/>
</g>
</svg>
