<svg width="149" height="30" viewBox="0 0 149 30" fill="none" xmlns="http://www.w3.org/2000/svg">
<g opacity="0.55">
<path opacity="0.55" d="M48.4541 24.227C47.7065 24.2685 46.9668 24.0572 46.3541 23.627C46.098 23.4374 45.892 23.1882 45.7538 22.9011C45.6156 22.6139 45.5495 22.2975 45.5611 21.979V10.313C45.5549 10.2636 45.5601 10.2134 45.5762 10.1664C45.5924 10.1193 45.6191 10.0765 45.6543 10.0413C45.6895 10.0061 45.7323 9.97936 45.7794 9.9632C45.8265 9.94704 45.8766 9.94185 45.9261 9.94802H48.0391C48.2781 9.94802 48.3911 10.074 48.3911 10.313V21.069C48.3911 21.547 48.6051 21.786 49.0451 21.786C49.2319 21.7938 49.4188 21.7725 49.5991 21.723C49.8511 21.723 49.9891 21.798 49.9991 22.023L50.1901 23.593C50.1991 23.6387 50.1983 23.6858 50.1877 23.7312C50.1771 23.7766 50.1569 23.8191 50.1285 23.8561C50.1001 23.893 50.0641 23.9234 50.023 23.9453C49.9819 23.9672 49.9366 23.9801 49.8901 23.983C49.4268 24.1379 48.9424 24.2202 48.4541 24.227Z" fill="#394149"/>
<path opacity="0.55" d="M60.342 22.881C59.2801 23.7584 57.9456 24.2384 56.568 24.2384C55.1905 24.2384 53.856 23.7584 52.794 22.881C51.8605 21.9387 51.3368 20.6659 51.3368 19.3395C51.3368 18.0131 51.8605 16.7403 52.794 15.798C53.858 14.925 55.1918 14.4479 56.568 14.4479C57.9443 14.4479 59.278 14.925 60.342 15.798C61.254 16.7489 61.7632 18.0155 61.7632 19.333C61.7632 20.6505 61.254 21.9171 60.342 22.868V22.881ZM54.782 21.217C55.275 21.6639 55.9166 21.9115 56.582 21.9115C57.2475 21.9115 57.8891 21.6639 58.382 21.217C58.8285 20.7041 59.0743 20.047 59.0743 19.367C59.0743 18.687 58.8285 18.0299 58.382 17.517C57.8891 17.0701 57.2475 16.8225 56.582 16.8225C55.9166 16.8225 55.275 17.0701 54.782 17.517C54.3356 18.0299 54.0898 18.687 54.0898 19.367C54.0898 20.047 54.3356 20.7041 54.782 21.217Z" fill="#394149"/>
<path opacity="0.55" d="M73.4 14.767C73.639 14.767 73.752 14.893 73.752 15.132V24.152C73.7736 24.7611 73.6592 25.3673 73.417 25.9266C73.1748 26.4858 72.811 26.9841 72.352 27.385C71.3348 28.2525 70.0266 28.702 68.691 28.643C67.4848 28.6853 66.2947 28.3557 65.282 27.699C64.8495 27.415 64.4801 27.0451 64.1966 26.6123C63.9131 26.1795 63.7216 25.693 63.634 25.183C63.634 24.931 63.634 24.818 63.974 24.818H66.087C66.1767 24.8212 66.2635 24.8501 66.3372 24.9014C66.4108 24.9526 66.468 25.024 66.502 25.107C66.639 25.489 66.9122 25.807 67.269 26C67.7042 26.2246 68.1885 26.337 68.678 26.327C68.9735 26.3432 69.2691 26.3003 69.5478 26.2009C69.8265 26.1015 70.0825 25.9475 70.301 25.748C70.5007 25.5394 70.656 25.2924 70.7576 25.022C70.8591 24.7517 70.9049 24.4636 70.892 24.175V23.382C70.1353 23.9388 69.2142 24.2267 68.275 24.2C67.6178 24.2241 66.9625 24.115 66.3485 23.8794C65.7345 23.6438 65.1745 23.2865 64.702 22.829C63.7949 21.8907 63.2878 20.6367 63.2878 19.3315C63.2878 18.0264 63.7949 16.7724 64.702 15.834C65.1768 15.3805 65.7375 15.0267 66.3511 14.7933C66.9648 14.5599 67.6189 14.4517 68.275 14.475C69.2413 14.4494 70.1872 14.7558 70.955 15.343V15.143C70.9492 15.0948 70.9542 15.0459 70.9697 14.9999C70.9851 14.9539 71.0106 14.9119 71.0443 14.8769C71.078 14.842 71.1191 14.8149 71.1645 14.7978C71.21 14.7807 71.2587 14.774 71.307 14.778L73.4 14.767ZM68.519 21.967C68.843 21.977 69.1653 21.9158 69.463 21.7876C69.7607 21.6593 70.0267 21.4673 70.242 21.225C70.6603 20.6849 70.8872 20.0212 70.8872 19.338C70.8872 18.6549 70.6603 17.9912 70.242 17.451C70.0275 17.2118 69.7631 17.0224 69.4675 16.8963C69.1719 16.7702 68.8522 16.7104 68.531 16.721C68.2032 16.7107 67.877 16.7717 67.575 16.8998C67.273 17.0279 67.0024 17.2201 66.782 17.463C66.3188 17.9798 66.0753 18.6567 66.103 19.35C66.0803 20.0355 66.3175 20.7042 66.767 21.222C66.9879 21.4644 67.2586 21.6561 67.5605 21.7842C67.8623 21.9122 68.1883 21.9736 68.516 21.964L68.519 21.967Z" fill="#394149"/>
<path opacity="0.55" d="M84.609 22.88C83.545 23.753 82.2113 24.2301 80.835 24.2301C79.4587 24.2301 78.125 23.753 77.061 22.88C76.1482 21.9269 75.6386 20.6582 75.6386 19.3385C75.6386 18.0188 76.1482 16.7501 77.061 15.797C78.1261 14.9264 79.4594 14.4507 80.835 14.4507C82.2106 14.4507 83.544 14.9264 84.609 15.797C85.521 16.7479 86.0302 18.0145 86.0302 19.332C86.0302 20.6495 85.521 21.9161 84.609 22.867V22.88ZM79.036 21.217C79.5261 21.6741 80.1713 21.9283 80.8415 21.9283C81.5117 21.9283 82.1569 21.6741 82.647 21.217C83.0861 20.7006 83.3272 20.0448 83.3272 19.367C83.3272 18.6892 83.0861 18.0334 82.647 17.517C82.1569 17.0599 81.5117 16.8057 80.8415 16.8057C80.1713 16.8057 79.5261 17.0599 79.036 17.517C78.5969 18.0334 78.3559 18.6892 78.3559 19.367C78.3559 20.0448 78.5969 20.7006 79.036 21.217Z" fill="#394149"/>
<path opacity="0.55" d="M90.571 12.628C90.2387 12.9184 89.8123 13.0784 89.371 13.0784C88.9297 13.0784 88.5034 12.9184 88.171 12.628C88.0202 12.4858 87.9001 12.3142 87.818 12.1238C87.7359 11.9335 87.6935 11.7283 87.6935 11.521C87.6935 11.3137 87.7359 11.1086 87.818 10.9182C87.9001 10.7279 88.0202 10.5563 88.171 10.414C88.5068 10.131 88.9318 9.97577 89.371 9.97577C89.8102 9.97577 90.2352 10.131 90.571 10.414C90.7218 10.5563 90.8419 10.7279 90.924 10.9182C91.0061 11.1086 91.0485 11.3137 91.0485 11.521C91.0485 11.7283 91.0061 11.9335 90.924 12.1238C90.8419 12.3142 90.7218 12.4858 90.571 12.628ZM90.835 24.228C90.0879 24.2657 89.3494 24.0547 88.735 23.628C88.483 23.4355 88.2806 23.1854 88.1449 22.8987C88.0093 22.612 87.9441 22.297 87.955 21.98V15.131C87.9488 15.0816 87.954 15.0315 87.9702 14.9844C87.9864 14.9373 88.0131 14.8945 88.0483 14.8593C88.0835 14.8241 88.1263 14.7974 88.1733 14.7812C88.2204 14.7651 88.2706 14.7599 88.32 14.766H90.433C90.672 14.766 90.785 14.892 90.785 15.131V21.069C90.785 21.547 90.999 21.786 91.427 21.786C91.6177 21.7929 91.8085 21.7717 91.993 21.723C92.245 21.723 92.383 21.798 92.393 22.023L92.582 23.596C92.5911 23.6417 92.5903 23.6888 92.5797 23.7342C92.569 23.7796 92.5489 23.8221 92.5205 23.8591C92.492 23.896 92.4561 23.9264 92.415 23.9483C92.3738 23.9702 92.3285 23.9831 92.282 23.986C91.8153 24.1405 91.3276 24.2218 90.836 24.227L90.835 24.228Z" fill="#394149"/>
<path opacity="0.55" d="M100.36 14.465C101.021 14.4387 101.68 14.5454 102.298 14.7789C102.917 15.0123 103.482 15.3678 103.96 15.824C104.85 16.7788 105.344 18.0352 105.344 19.34C105.344 20.6449 104.85 21.9013 103.96 22.856C103.484 23.3162 102.919 23.675 102.301 23.9106C101.682 24.1463 101.022 24.2539 100.36 24.227C99.418 24.2479 98.495 23.9607 97.7311 23.409V27.95C97.7311 28.189 97.6051 28.302 97.3661 28.302H95.2521C95.2038 28.3115 95.154 28.3089 95.1069 28.2945C95.0599 28.2802 95.0171 28.2545 94.9823 28.2197C94.9476 28.185 94.9219 28.1422 94.9075 28.0952C94.8932 28.0481 94.8906 27.9983 94.9001 27.95V17.635C94.9149 17.5342 94.9059 17.4312 94.8738 17.3345C94.8418 17.2377 94.7875 17.1497 94.7154 17.0777C94.6433 17.0056 94.5554 16.9513 94.4586 16.9193C94.3619 16.8872 94.2589 16.8782 94.1581 16.893H93.7431C93.4664 16.893 93.3281 16.793 93.3281 16.593V15.106C93.3211 15.0142 93.346 14.9227 93.3987 14.8471C93.4513 14.7714 93.5285 14.7163 93.6171 14.691C94.0524 14.533 94.513 14.4564 94.9761 14.465C95.437 14.4239 95.8998 14.5211 96.3052 14.7443C96.7106 14.9675 97.0403 15.3065 97.2521 15.718C97.6573 15.3082 98.1418 14.9853 98.676 14.769C99.2102 14.5527 99.7829 14.4475 100.359 14.46L100.36 14.465ZM98.3971 21.218C98.6212 21.4528 98.8906 21.6397 99.1889 21.7673C99.4873 21.895 99.8085 21.9608 100.133 21.9608C100.458 21.9608 100.779 21.895 101.077 21.7673C101.376 21.6397 101.645 21.4528 101.869 21.218C102.342 20.691 102.59 20.0003 102.561 19.293C102.594 18.5851 102.345 17.893 101.869 17.368C101.645 17.1333 101.376 16.9464 101.077 16.8187C100.779 16.6911 100.458 16.6252 100.133 16.6252C99.8085 16.6252 99.4873 16.6911 99.1889 16.8187C98.8906 16.9464 98.6212 17.1333 98.3971 17.368C97.9392 17.9022 97.7009 18.5901 97.7301 19.293C97.7046 19.9954 97.9424 20.682 98.3971 21.218Z" fill="#394149"/>
<path opacity="0.55" d="M111.279 24.227C110.15 24.2735 109.03 24.0033 108.046 23.447C107.651 23.2092 107.315 22.8855 107.062 22.5C106.81 22.1144 106.647 21.677 106.587 21.22C106.587 20.968 106.675 20.843 106.952 20.843H108.801C108.889 20.8465 108.974 20.8742 109.048 20.9231C109.121 20.972 109.179 21.0401 109.216 21.12C109.48 21.799 110.172 22.139 111.279 22.139C111.665 22.1569 112.05 22.0793 112.399 21.913C112.519 21.8588 112.623 21.7728 112.698 21.6643C112.774 21.5558 112.818 21.4288 112.827 21.297C112.827 20.97 112.627 20.743 112.227 20.597C111.75 20.4379 111.256 20.3323 110.755 20.282C110.162 20.2147 109.574 20.1095 108.994 19.967C108.43 19.8394 107.917 19.5458 107.522 19.124C107.289 18.8374 107.118 18.506 107.018 18.1503C106.919 17.7946 106.894 17.4222 106.945 17.0564C106.995 16.6906 107.121 16.3392 107.313 16.0239C107.506 15.7087 107.761 15.4364 108.063 15.224C108.97 14.6466 110.033 14.3653 111.107 14.419C112.147 14.3838 113.175 14.6409 114.076 15.161C114.439 15.3666 114.752 15.6506 114.991 15.9923C115.23 16.3339 115.391 16.7246 115.46 17.136C115.46 17.3874 115.347 17.513 115.12 17.513H113.254C113.176 17.5176 113.098 17.4985 113.031 17.4582C112.963 17.4179 112.91 17.3582 112.877 17.287C112.753 16.989 112.519 16.7502 112.223 16.62C111.89 16.4455 111.517 16.3587 111.141 16.368C110.772 16.3482 110.405 16.4218 110.072 16.582C109.955 16.6277 109.855 16.7072 109.783 16.8104C109.712 16.9135 109.673 17.0356 109.672 17.161C109.68 17.3325 109.742 17.497 109.85 17.6305C109.958 17.764 110.106 17.8595 110.272 17.903C110.756 18.0852 111.259 18.2117 111.772 18.28C112.36 18.3575 112.944 18.4666 113.521 18.607C114.085 18.7347 114.598 19.0283 114.993 19.45C115.204 19.6823 115.368 19.9542 115.473 20.2499C115.579 20.5456 115.625 20.8594 115.609 21.173C115.62 21.6079 115.518 22.0382 115.313 22.4218C115.108 22.8055 114.807 23.1294 114.439 23.362C113.498 23.9647 112.396 24.2664 111.279 24.227Z" fill="#394149"/>
<path opacity="0.55" d="M128.904 23.598C128.911 23.6426 128.91 23.6881 128.899 23.732C128.888 23.7762 128.868 23.8177 128.841 23.854C128.814 23.8906 128.78 23.9212 128.741 23.944C128.702 23.967 128.659 23.982 128.614 23.988C128.155 24.1381 127.675 24.2186 127.192 24.227C126.714 24.2766 126.231 24.2019 125.79 24.0102C125.35 23.8186 124.966 23.5165 124.676 23.133C123.787 23.8969 122.638 24.2887 121.468 24.227C120.925 24.2518 120.383 24.1627 119.876 23.9655C119.369 23.7683 118.91 23.4674 118.526 23.082C118.145 22.678 117.849 22.2013 117.657 21.6803C117.464 21.1593 117.379 20.6048 117.406 20.05V15.132C117.406 14.893 117.519 14.767 117.758 14.767H119.871C120.11 14.767 120.223 14.893 120.223 15.132V19.673C120.2 20.2389 120.394 20.7921 120.765 21.22C120.95 21.4162 121.175 21.5705 121.424 21.6725C121.674 21.7744 121.943 21.8217 122.212 21.811C122.488 21.823 122.763 21.7803 123.023 21.6852C123.282 21.5901 123.519 21.4446 123.722 21.257C123.914 21.059 124.063 20.8237 124.161 20.5657C124.258 20.3077 124.301 20.0325 124.288 19.757V15.132C124.288 14.893 124.401 14.767 124.64 14.767H126.779C127.018 14.767 127.131 14.893 127.131 15.132V21.057C127.131 21.548 127.345 21.787 127.76 21.787C127.955 21.7946 128.15 21.7734 128.339 21.724C128.387 21.7106 128.437 21.7081 128.485 21.7168C128.534 21.7254 128.58 21.745 128.62 21.774C128.661 21.8027 128.695 21.8403 128.72 21.884C128.743 21.9278 128.756 21.9759 128.758 22.025L128.904 23.598Z" fill="#394149"/>
<path opacity="0.55" d="M148.889 23.598C148.899 23.6435 148.899 23.6906 148.889 23.736C148.879 23.7816 148.86 23.8245 148.832 23.862C148.806 23.899 148.772 23.9297 148.732 23.952C148.691 23.9742 148.646 23.9868 148.6 23.989C148.133 24.1411 147.645 24.2217 147.153 24.228C146.406 24.2676 145.667 24.0564 145.053 23.628C144.788 23.4438 144.572 23.197 144.425 22.9096C144.278 22.6221 144.204 22.3028 144.21 21.98V19.018C144.237 18.4541 144.048 17.9011 143.682 17.471C143.506 17.2744 143.288 17.1193 143.044 17.0171C142.8 16.9149 142.537 16.8681 142.273 16.88C142.035 16.871 141.798 16.9162 141.58 17.0121C141.362 17.1081 141.169 17.2524 141.015 17.434C140.683 17.8554 140.513 18.382 140.537 18.918V23.56C140.537 23.799 140.424 23.925 140.185 23.925H138.059C138.01 23.9311 137.959 23.9259 137.912 23.9098C137.865 23.8937 137.822 23.8671 137.787 23.832C137.752 23.7968 137.725 23.7541 137.709 23.707C137.693 23.6598 137.688 23.6095 137.694 23.56V19.018C137.721 18.4602 137.547 17.9111 137.203 17.471C137.05 17.2863 136.857 17.1376 136.64 17.0355C136.422 16.9333 136.185 16.8803 135.945 16.88C135.688 16.8698 135.432 16.9138 135.194 17.0093C134.955 17.1047 134.74 17.2495 134.561 17.434C134.201 17.842 134.016 18.3749 134.045 18.918V23.56C134.052 23.6095 134.046 23.6598 134.03 23.707C134.014 23.7532 133.987 23.7951 133.953 23.8297C133.918 23.8643 133.876 23.8907 133.83 23.907C133.783 23.923 133.733 23.9281 133.683 23.922H131.632C131.393 23.922 131.28 23.796 131.28 23.557V17.635C131.295 17.534 131.286 17.431 131.254 17.3341C131.222 17.2372 131.167 17.1492 131.095 17.077C131.023 17.0049 130.935 16.9506 130.838 16.9185C130.742 16.8864 130.639 16.8773 130.538 16.892H130.123C129.846 16.892 129.708 16.792 129.708 16.592V15.106C129.701 15.0141 129.726 14.9227 129.779 14.8471C129.831 14.7714 129.908 14.7163 129.997 14.691C130.432 14.533 130.893 14.4564 131.356 14.465C131.8 14.427 132.246 14.5155 132.643 14.7203C133.039 14.925 133.369 15.2376 133.595 15.622C134.02 15.2192 134.524 14.9086 135.074 14.7095C135.625 14.5104 136.211 14.4271 136.795 14.465C137.362 14.4372 137.927 14.5435 138.445 14.7751C138.963 15.0067 139.419 15.3571 139.776 15.798C140.193 15.3451 140.705 14.9905 141.276 14.76C141.847 14.5295 142.462 14.4287 143.076 14.465C143.625 14.4394 144.174 14.528 144.687 14.7251C145.2 14.9221 145.667 15.2235 146.058 15.61C146.44 16.0134 146.736 16.4901 146.929 17.0112C147.121 17.5324 147.206 18.0872 147.178 18.642V21.07C147.178 21.548 147.392 21.787 147.794 21.787C147.989 21.7961 148.184 21.7749 148.373 21.724C148.634 21.724 148.772 21.824 148.788 22.024L148.889 23.598Z" fill="#394149"/>
<path opacity="0.55" d="M1.37904 13.131C2.30716 9.40062 4.45664 6.08801 7.48525 3.72059C10.5138 1.35317 14.2474 0.0670776 18.0915 0.0670776C21.9356 0.0670776 25.6692 1.35317 28.6978 3.72059C31.7264 6.08801 33.8759 9.40062 34.804 13.131H33.294C30.7481 13.0939 28.2545 13.8548 26.163 15.307C26.0424 15.3944 25.9165 15.4742 25.786 15.546H25.61C25.4795 15.4742 25.3536 15.3944 25.233 15.307C23.1226 13.8879 20.6372 13.13 18.094 13.13C15.5509 13.13 13.0654 13.8879 10.955 15.307C10.8344 15.3944 10.7085 15.4742 10.578 15.546H10.402C10.2715 15.4742 10.1456 15.3944 10.025 15.307C7.93304 13.8544 5.43863 13.0934 2.89204 13.131H1.37904ZM30.579 21.019C31.354 20.4156 32.3143 20.1 33.296 20.126H35.321V16.087H33.295C31.5656 16.0662 29.8757 16.6046 28.477 17.622C27.6899 18.2024 26.7376 18.5156 25.7595 18.5156C24.7815 18.5156 23.8292 18.2024 23.042 17.622C21.6078 16.6235 19.9021 16.0882 18.1545 16.0882C16.4069 16.0882 14.7013 16.6235 13.267 17.622C12.4799 18.2024 11.5276 18.5156 10.5495 18.5156C9.57152 18.5156 8.6192 18.2024 7.83204 17.622C6.41607 16.5915 4.70193 16.0525 2.95104 16.087H0.863037V20.125H2.88804C3.86979 20.099 4.83012 20.4146 5.60504 21.018C7.03663 22.017 8.74031 22.5527 10.486 22.5527C12.2318 22.5527 13.9354 22.017 15.367 21.018C16.1429 20.4165 17.1026 20.1011 18.084 20.125C19.0661 20.0968 20.0272 20.4127 20.801 21.018C22.2353 22.0165 23.9409 22.5518 25.6885 22.5518C27.4361 22.5518 29.1418 22.0165 30.576 21.018L30.579 21.019ZM30.579 28.24C31.354 27.6366 32.3143 27.321 33.296 27.347H35.321V23.308H33.295C31.5656 23.2872 29.8757 23.8256 28.477 24.843C27.6899 25.4234 26.7376 25.7366 25.7595 25.7366C24.7815 25.7366 23.8292 25.4234 23.042 24.843C21.6077 23.8446 19.9021 23.3094 18.1545 23.3094C16.407 23.3094 14.7013 23.8446 13.267 24.843C12.4799 25.4234 11.5276 25.7366 10.5495 25.7366C9.57152 25.7366 8.6192 25.4234 7.83204 24.843C6.41604 23.8126 4.70192 23.2735 2.95104 23.308H0.863037V27.347H2.88804C3.86979 27.321 4.83012 27.6366 5.60504 28.24C7.03663 29.239 8.74031 29.7747 10.486 29.7747C12.2318 29.7747 13.9354 29.239 15.367 28.24C16.1429 27.6385 17.1026 27.3231 18.084 27.347C19.0661 27.3188 20.0272 27.6347 20.801 28.24C22.2353 29.2385 23.9409 29.7738 25.6885 29.7738C27.4361 29.7738 29.1418 29.2385 30.576 28.24H30.579Z" fill="#394149"/>
</g>
</svg>
