<svg width="120" height="39" viewBox="0 0 120 39" fill="none" xmlns="http://www.w3.org/2000/svg">
<path d="M2.55682 31H6.06818V20.8523H15.9545V17.8409H6.06818V10.75H16.9886V7.72727H2.55682V31ZM27.1051 31.3523C32.0256 31.3523 35.2415 27.75 35.2415 22.3523C35.2415 16.9205 32.0256 13.3182 27.1051 13.3182C22.1847 13.3182 18.9688 16.9205 18.9688 22.3523C18.9688 27.75 22.1847 31.3523 27.1051 31.3523ZM27.1165 28.5C23.9006 28.5 22.4006 25.6932 22.4006 22.3409C22.4006 19 23.9006 16.1591 27.1165 16.1591C30.3097 16.1591 31.8097 19 31.8097 22.3409C31.8097 25.6932 30.3097 28.5 27.1165 28.5ZM46.3864 31.3523C51.3068 31.3523 54.5227 27.75 54.5227 22.3523C54.5227 16.9205 51.3068 13.3182 46.3864 13.3182C41.4659 13.3182 38.25 16.9205 38.25 22.3523C38.25 27.75 41.4659 31.3523 46.3864 31.3523ZM46.3977 28.5C43.1818 28.5 41.6818 25.6932 41.6818 22.3409C41.6818 19 43.1818 16.1591 46.3977 16.1591C49.5909 16.1591 51.0909 19 51.0909 22.3409C51.0909 25.6932 49.5909 28.5 46.3977 28.5ZM64.8494 31.3409C68.0312 31.3409 69.2812 29.3977 69.8949 28.2841H70.179V31H73.4972V7.72727H70.0994V16.375H69.8949C69.2812 15.2955 68.1222 13.3182 64.8722 13.3182C60.6562 13.3182 57.554 16.6477 57.554 22.3068C57.554 27.9545 60.6108 31.3409 64.8494 31.3409ZM65.5994 28.4432C62.5653 28.4432 60.9858 25.7727 60.9858 22.2727C60.9858 18.8068 62.5312 16.2045 65.5994 16.2045C68.5653 16.2045 70.1562 18.625 70.1562 22.2727C70.1562 25.9432 68.5312 28.4432 65.5994 28.4432ZM78.3466 31H81.7443V13.5455H78.3466V31ZM80.0625 10.8523C81.233 10.8523 82.2102 9.94318 82.2102 8.82954C82.2102 7.71591 81.233 6.79545 80.0625 6.79545C78.8807 6.79545 77.9148 7.71591 77.9148 8.82954C77.9148 9.94318 78.8807 10.8523 80.0625 10.8523ZM93.8381 31.3523C97.6449 31.3523 100.338 29.4773 101.111 26.6364L97.8949 26.0568C97.2812 27.7045 95.804 28.5455 93.8722 28.5455C90.9631 28.5455 89.0085 26.6591 88.9176 23.2955H101.327V22.0909C101.327 15.7841 97.554 13.3182 93.5994 13.3182C88.7358 13.3182 85.5312 17.0227 85.5312 22.3864C85.5312 27.8068 88.6903 31.3523 93.8381 31.3523ZM88.929 20.75C89.0653 18.2727 90.8608 16.125 93.6222 16.125C96.2585 16.125 97.9858 18.0795 97.9972 20.75H88.929ZM118.176 17.8068C117.472 15.0909 115.347 13.3182 111.574 13.3182C107.631 13.3182 104.835 15.3977 104.835 18.4886C104.835 20.9659 106.335 22.6136 109.608 23.3409L112.562 23.9886C114.244 24.3636 115.028 25.1136 115.028 26.2045C115.028 27.5568 113.585 28.6136 111.358 28.6136C109.324 28.6136 108.017 27.7386 107.608 26.0227L104.324 26.5227C104.892 29.6136 107.46 31.3523 111.381 31.3523C115.597 31.3523 118.517 29.1136 118.517 25.9545C118.517 23.4886 116.949 21.9659 113.744 21.2273L110.972 20.5909C109.051 20.1364 108.222 19.4886 108.233 18.3068C108.222 16.9659 109.676 16.0114 111.608 16.0114C113.722 16.0114 114.699 17.1818 115.097 18.3523L118.176 17.8068Z" fill="#06C167"/>
</svg>
